<svg width="34" height="30" viewBox="0 0 34 30" fill="none" xmlns="http://www.w3.org/2000/svg">
<g clip-path="url(#clip0_44_129)">
<g clip-path="url(#clip1_44_129)">
<path d="M16.5586 4.57617C17.0273 2.97656 18.4922 1.875 20.1562 1.875H31.875C32.9121 1.875 33.75 2.71289 33.75 3.75C33.75 4.78711 32.9121 5.625 31.875 5.625H20.1562L13.9863 26.7773C13.7754 27.498 13.1602 28.0195 12.416 28.1133C11.6719 28.207 10.9453 27.8438 10.5703 27.1992L4.54688 16.875H1.875C0.837891 16.875 0 16.0371 0 15C0 13.9629 0.837891 13.125 1.875 13.125H4.54688C5.88281 13.125 7.11328 13.834 7.78711 14.9883L11.6074 21.5391L16.5586 4.57617ZM23.0508 13.6758C23.7832 12.9434 24.9727 12.9434 25.7051 13.6758L28.125 16.0957L30.5508 13.6699C31.2832 12.9375 32.4727 12.9375 33.2051 13.6699C33.9375 14.4023 33.9375 15.5918 33.2051 16.3242L30.7793 18.75L33.2051 21.1758C33.9375 21.9082 33.9375 23.0977 33.2051 23.8301C32.4727 24.5625 31.2832 24.5625 30.5508 23.8301L28.125 21.4043L25.6992 23.8301C24.9668 24.5625 23.7773 24.5625 23.0449 23.8301C22.3125 23.0977 22.3125 21.9082 23.0449 21.1758L25.4707 18.75L23.0449 16.3242C22.3125 15.5918 22.3125 14.4023 23.0449 13.6699L23.0508 13.6758Z" fill="#2563EB"/>
</g>
</g>
<defs>
<clipPath id="clip0_44_129">
<rect width="33.75" height="30" fill="white"/>
</clipPath>
<clipPath id="clip1_44_129">
<path d="M0 0H33.75V30H0V0Z" fill="white"/>
</clipPath>
</defs>
</svg>
